<svg id="Layer_1" data-name="Layer 1" xmlns="http://www.w3.org/2000/svg" viewBox="0 0 10.28 11.83"><defs><style>.cls-1{fill:#29bec8;}</style></defs><title>hexagon-github</title><path class="cls-1" d="M5.14,0,0,3V8.9L3.71,11a8.61,8.61,0,0,1,.64-3L4,8a2.12,2.12,0,0,1-1.4-3.4.29.29,0,0,0,0-.21,1.91,1.91,0,0,1,0-.91c0-.19.15-.24.3-.19s.59.25.88.37a.64.64,0,0,0,.33.05,4.67,4.67,0,0,1,2,0,.51.51,0,0,0,.38-.07,8.34,8.34,0,0,1,.82-.36c.17-.06.29,0,.34.2a1.87,1.87,0,0,1,0,.91.23.23,0,0,0,0,.17,2,2,0,0,1,.39,1.72A1.79,1.79,0,0,1,6.79,7.83C6.53,7.91,6.26,8,6,8a8.2,8.2,0,0,1,.54,3L10.28,8.9V3Z"/></svg>