<?xml version="1.0" encoding="utf-8"?>
<!-- Generator: Adobe Illustrator 22.0.1, SVG Export Plug-In . SVG Version: 6.00 Build 0)  -->
<svg version="1.1" id="Layer_1" xmlns="http://www.w3.org/2000/svg" xmlns:xlink="http://www.w3.org/1999/xlink" x="0px" y="0px"
	 viewBox="0 0 10.3 11.9" style="enable-background:new 0 0 10.3 11.9;" xml:space="preserve">
<style type="text/css">
	.st0{fill:#35BEC7;}
</style>
<title>hexagon-twitter</title>
<g>
	<path class="st0" d="M5.2,5.1c-0.7,0-1.3,0.5-1.5,1.3h2.8C6.4,5.6,6,5.1,5.2,5.1z"/>
	<path class="st0" d="M5.1,0L0,3v5.9l5.1,3l5.1-3V3L5.1,0z M7.3,6.6c0,0.2,0,0.4-0.1,0.5H3.7C3.8,8,4.5,8.6,5.4,8.6
		c0.5,0,1-0.2,1.4-0.4l0.3,0.6C6.6,9.1,6,9.3,5.3,9.3c-1.4,0-2.6-0.9-2.6-2.5c0-0.6,0.2-1.1,0.4-1.5c0,0-1.1-0.8-0.1-2.7
		c0,0-0.1,1.4,0.8,2.1c0.4-0.2,0.8-0.4,1.3-0.4S6,4.4,6.4,4.6c0.8-0.7,0.7-2,0.7-2c1,1.9,0,2.6-0.1,2.7C7.2,5.7,7.3,6.1,7.3,6.6z"/>
</g>
</svg>
