<svg id="Layer_1" data-name="Layer 1" xmlns="http://www.w3.org/2000/svg" viewBox="0 0 10.28 11.87"><defs><style>.cls-1{fill:#29bec8;}</style></defs><title>hexagon-twitter</title><path class="cls-1" d="M5.14,0,0,3V8.9l5.14,3,5.14-3V3Zm3,4.56q0,.09,0,.19A4.09,4.09,0,0,1,4,8.87H4a4.1,4.1,0,0,1-2.22-.65l.35,0a2.91,2.91,0,0,0,1.8-.62,1.45,1.45,0,0,1-1.35-1l.27,0a1.45,1.45,0,0,0,.38-.05A1.45,1.45,0,0,1,2.06,5.17v0a1.44,1.44,0,0,0,.66.18A1.45,1.45,0,0,1,2.27,3.4a4.11,4.11,0,0,0,3,1.51A1.45,1.45,0,0,1,7.72,3.59a2.91,2.91,0,0,0,.92-.35A1.45,1.45,0,0,1,8,4a2.89,2.89,0,0,0,.83-.23A3,3,0,0,1,8.12,4.56Z"/></svg>