<svg id="Layer_1" data-name="Layer 1" xmlns="http://www.w3.org/2000/svg" viewBox="0 0 10.28 11.87"><defs><style>.cls-1{fill:#FFFFFF;}</style></defs><title>hexagon-linkedin</title><path class="cls-1" d="M5.14,0,0,3V8.9l5.14,3,5.14-3V3ZM3.68,8.52H2.39V4.64H3.68ZM3.36,4A2.46,2.46,0,0,1,3,4.13v0a.68.68,0,0,1-.65-.38.67.67,0,0,1,.55-1,.79.79,0,0,1,.58.13.64.64,0,0,1,.25.63A.6.6,0,0,1,3.36,4Zm5,4.48H7V8.45c0-.69,0-1.38,0-2.07A1.43,1.43,0,0,0,7,6a.58.58,0,0,0-.63-.4.72.72,0,0,0-.65.7q0,1.07,0,2.14s0,.08,0,.12H4.4V4.64H5.69v.53L5.85,5a1.19,1.19,0,0,1,.74-.4,1.58,1.58,0,0,1,.94.12,1.37,1.37,0,0,1,.72.94,2.59,2.59,0,0,1,.08.68c0,.72,0,1.44,0,2.17C8.34,8.49,8.34,8.5,8.34,8.52Z"/></svg>